<svg width="253" height="253" viewBox="0 0 253 253" fill="none" xmlns="http://www.w3.org/2000/svg">
<path d="M130.014 129.135C162.035 129.135 187.993 103.374 187.993 71.5955C187.993 39.8171 162.035 14.0556 130.014 14.0556C97.9933 14.0556 72.0352 39.8171 72.0352 71.5955C72.0352 103.374 97.9933 129.135 130.014 129.135Z" fill="url(#paint0_linear_531_381)"/>
<path d="M126.187 253C157.901 253 202.048 162.645 202.048 130.983C202.048 99.3202 157.901 138.34 126.187 138.34C94.4728 138.34 50.9512 99.3202 50.9512 130.983C50.9512 162.645 94.4728 253 126.187 253Z" fill="url(#paint1_linear_531_381)"/>
<path d="M215.949 37.0512C192.056 13.1588 160.289 0 126.5 0C92.7112 0 60.9435 13.1588 37.0512 37.0512C13.1588 60.9435 0 92.7112 0 126.5C0 157.34 10.9617 186.497 31.0496 209.519C32.9661 211.721 34.9682 213.866 37.0512 215.949C37.541 216.439 38.0356 216.928 38.535 217.404C39.8665 218.693 41.2219 219.953 42.601 221.175C43.438 221.922 44.2845 222.654 45.1405 223.372C45.8111 223.938 46.4816 224.495 47.1617 225.042C47.176 225.056 47.1855 225.065 47.1997 225.075C69.6035 243.17 97.2956 253 126.5 253C158.177 253 188.076 241.434 211.379 220.3C212.934 218.893 214.456 217.442 215.949 215.949C216.42 215.478 216.89 215.002 217.352 214.522C218.636 213.2 219.882 211.854 221.099 210.489C241.724 187.32 253 157.778 253 126.5C253 92.7112 239.841 60.9435 215.949 37.0512ZM220.79 209.305C219.601 210.656 218.384 211.987 217.138 213.286C215.197 215.307 213.195 217.266 211.127 219.154C210.342 219.877 209.548 220.581 208.744 221.28C200.626 228.342 191.59 234.372 181.846 239.175C178.427 240.864 174.922 242.4 171.336 243.774C157.407 249.119 142.289 252.049 126.5 252.049C111.263 252.049 96.6536 249.319 83.1333 244.326C77.5835 242.281 72.2191 239.851 67.0688 237.069C66.3126 236.66 65.5612 236.246 64.8146 235.823C60.8865 233.597 57.0867 231.167 53.4391 228.542C50.7141 226.587 48.07 224.528 45.5162 222.359C44.6222 221.603 43.7376 220.838 42.8673 220.053C41.4501 218.793 40.0615 217.494 38.7062 216.163C36.1381 213.647 33.6842 211.027 31.3397 208.302C12.4075 186.312 0.951128 157.721 0.951128 126.5C0.951128 57.2722 57.2722 0.951128 126.5 0.951128C195.728 0.951128 252.049 57.2722 252.049 126.5C252.049 158.201 240.241 187.191 220.79 209.305Z" fill="#FAFAFA"/>
<defs>
<linearGradient id="paint0_linear_531_381" x1="130.014" y1="14.0556" x2="130.014" y2="129.135" gradientUnits="userSpaceOnUse">
<stop stop-color="#820AD1"/>
<stop offset="1" stop-color="#31D5EE"/>
</linearGradient>
<linearGradient id="paint1_linear_531_381" x1="126.5" y1="118.594" x2="126.5" y2="253" gradientUnits="userSpaceOnUse">
<stop stop-color="#820AD1"/>
<stop offset="1" stop-color="#31D5EE"/>
</linearGradient>
</defs>
</svg>
