<svg width="730" height="288" viewBox="0 0 730 288" fill="none" xmlns="http://www.w3.org/2000/svg">
<path d="M128.344 182.972C127.999 177.893 127.997 173.044 127.898 169.305C127.697 161.691 144.036 162.234 152.822 161.999L184.724 160.479C193.51 160.244 200.822 166.248 201.024 173.863C201.225 181.478 194.241 187.864 185.455 188.099C172.55 199.358 162.54 199.905 144.837 199.153C140.588 198.97 136.555 197.218 133.512 194.233C130.468 191.247 128.628 187.237 128.344 182.972Z" fill="#2F2E41"/>
<path d="M201.698 270.434L210.838 271.935L220.948 237.215L207.458 235L201.698 270.434Z" fill="#FFB6B6"/>
<path d="M205.331 198.036C188.29 202.247 175.706 197.504 165.341 198.119C159.45 188.127 140.643 175.435 150.905 170.093C156.619 167.118 214.71 160.26 222.336 168.175C233.074 179.32 231.574 199.592 228.018 215.654C227.924 216.083 227.827 216.508 227.73 216.931C227.549 217.71 227.365 218.478 227.177 219.235C226.941 220.188 225.305 220.172 225.061 221.082C224.717 222.365 225.762 224.551 225.414 225.733C224.819 227.757 223.019 229.66 223.68 231.272C225.503 235.718 221.738 239.175 220.74 239.323L206.912 235.849C205.936 235.618 203.644 233.179 207.307 231.037C208.344 230.431 207.468 228.446 207.536 226.924C207.578 225.989 207.614 225.002 207.643 223.977C207.681 222.614 207.705 221.182 207.708 219.707C207.721 212.433 207.216 204.129 205.331 198.036Z" fill="#2F2E41"/>
<path d="M202.499 257.535L216.053 260.325L214.523 266.069L224.86 278.287C225.371 278.89 225.676 279.642 225.732 280.432C225.787 281.222 225.59 282.009 225.169 282.679C224.748 283.348 224.125 283.865 223.391 284.154C222.657 284.442 221.85 284.487 221.089 284.282L205.207 280.008L203.983 273.589L201.4 278.983L195.412 277.372L202.499 257.535Z" fill="#2F2E41"/>
<path d="M100.468 209.977L101.259 219.251L137.227 220.6L136.06 206.911L100.468 209.977Z" fill="#FFB6B6"/>
<path d="M187.971 191.525C172.251 185.739 166.374 171.635 161.32 156.835C169.516 148.647 180.799 136.369 188.465 145.06C192.735 149.9 226.708 191.412 220.94 200.782C212.066 215.199 183.108 219.631 161.278 220.865C159.943 220.941 158.636 221.005 157.359 221.057C156.186 221.106 155.042 221.147 153.927 221.179C149.418 221.31 144.666 219.208 142.331 221.28C138.123 225.012 135.318 223.212 135.18 221.082L134.315 206.315C133.686 203.939 140.311 201.948 142.958 204.578C144.859 206.467 144.048 204.319 149.039 203.176C161.105 200.413 177.794 196.122 187.971 191.525Z" fill="#2F2E41"/>
<path d="M113.107 207.597L113.735 221.488L107.819 221.404L98.5657 234.47C98.1087 235.115 97.4585 235.597 96.7099 235.845C95.9613 236.092 95.1535 236.093 94.4045 235.847C93.6555 235.6 93.0045 235.12 92.5465 234.475C92.0885 233.83 91.8476 233.055 91.8588 232.263L92.092 215.74L97.9843 212.975L92.1478 211.779L92.2357 205.549L113.107 207.597Z" fill="#2F2E41"/>
<path d="M133.98 173.282C133.942 173.213 133.922 173.135 133.925 173.055C133.927 172.976 133.951 172.898 133.994 172.832C128.686 172.634 123.416 173.855 124.808 168.963C125.007 168.264 129.785 163.154 130.063 162.388C130.305 161.723 128.838 158.382 129.13 157.671C129.701 156.278 132.096 157.454 132.806 155.912C133.056 155.37 131.461 153.886 131.722 153.328C131.968 152.803 134.069 153.204 134.322 152.667C139.078 142.569 144.91 130.386 143.377 120.322C141.433 107.568 141.729 89.4702 141.353 78.0248C141.28 75.7526 141.963 73.5209 143.295 71.6833C144.626 69.8456 146.53 68.507 148.704 67.8794C152.172 66.8659 156.33 65.0796 159.089 61.9879C159.811 61.1789 159.898 62.6294 159.99 60.6572C160.103 58.255 160.219 55.7707 161.495 54.4882L161.551 54.4328L161.625 54.4074C166.996 52.609 176.067 53.7724 178.764 54.399L178.881 54.4263L178.953 54.5227C180.068 56.0013 180.007 58.367 179.948 60.6546C179.894 62.7129 179.843 61.3438 180.751 61.93C181.453 62.384 182.128 62.818 182.776 63.2321C190.759 68.3504 194.767 70.92 197.703 79.2808C198.631 81.7103 198.98 84.3245 198.722 86.914C197.674 95.2803 193.227 156.606 191.445 158.745C190.983 159.299 192.184 160.263 192.682 160.983C193.395 162.016 191.128 162.908 190.773 163.591C190.531 164.056 189.905 164.273 188.805 164.273C184.657 164.272 135.188 175.55 133.98 173.282Z" fill="#3F3D56"/>
<path d="M168.601 138.953C170.146 139.928 167.122 142.274 165.297 142.274C164.421 142.274 163.58 141.924 162.961 141.301C162.341 140.679 161.993 139.834 161.993 138.953C161.993 137.119 164.04 132.761 164.884 134.387C165.114 134.831 166.584 137.681 168.601 138.953Z" fill="#DE8925"/>
<path d="M173.969 138.953C175.514 139.928 172.49 142.274 170.665 142.274C169.789 142.274 168.949 141.924 168.329 141.301C167.709 140.679 167.361 139.834 167.361 138.953C167.361 137.119 169.408 132.761 170.252 134.387C170.483 134.831 171.953 137.681 173.969 138.953Z" fill="#DE8925"/>
<path d="M171.404 138.208C169.656 137.682 171.95 134.611 173.708 134.123C174.127 134.007 174.563 133.974 174.994 134.028C175.425 134.081 175.84 134.22 176.218 134.435C176.595 134.65 176.927 134.937 177.194 135.281C177.461 135.625 177.657 136.018 177.773 136.439C178.259 138.206 177.441 142.955 176.197 141.614C175.857 141.247 173.685 138.894 171.404 138.208Z" fill="#DE8925"/>
<path d="M192.141 138.953C193.686 139.928 190.662 142.274 188.837 142.274C187.961 142.274 187.12 141.924 186.501 141.301C185.881 140.679 185.533 139.834 185.533 138.953C185.533 137.119 187.58 132.761 188.424 134.387C188.654 134.831 190.124 137.681 192.141 138.953Z" fill="#DE8925"/>
<path d="M197.509 138.953C199.054 139.928 196.03 142.274 194.205 142.274C193.329 142.274 192.489 141.924 191.869 141.301C191.249 140.679 190.901 139.834 190.901 138.953C190.901 137.119 192.948 132.761 193.792 134.387C194.023 134.831 195.493 137.681 197.509 138.953Z" fill="#DE8925"/>
<path d="M194.944 138.208C193.196 137.682 195.49 134.611 197.248 134.123C198.093 133.888 198.996 134 199.758 134.435C200.52 134.869 201.08 135.59 201.313 136.439C201.799 138.206 200.981 142.955 199.737 141.614C199.397 141.248 197.225 138.894 194.944 138.208Z" fill="#DE8925"/>
<path d="M156.949 138.208C155.201 137.682 157.495 134.611 159.253 134.123C160.098 133.888 161.001 134 161.763 134.435C162.525 134.869 163.084 135.59 163.318 136.439C163.804 138.206 162.986 142.955 161.742 141.614C161.402 141.248 159.23 138.894 156.949 138.208Z" fill="#DE8925"/>
<path d="M180.444 141.757C179.705 143.434 176.962 140.761 176.701 138.946C176.576 138.074 176.8 137.188 177.324 136.483C177.849 135.777 178.631 135.31 179.498 135.184C181.304 134.921 185.888 136.334 184.408 137.406C184.004 137.699 181.408 139.569 180.444 141.757Z" fill="#DE8925"/>
<path d="M186.778 136.196C187.218 134.416 190.378 136.573 190.947 138.316C191.082 138.73 191.135 139.167 191.102 139.602C191.07 140.037 190.952 140.461 190.756 140.85C190.56 141.239 190.29 141.586 189.961 141.87C189.632 142.154 189.25 142.37 188.838 142.506C187.104 143.078 182.346 142.482 183.62 141.169C183.968 140.811 186.204 138.519 186.778 136.196Z" fill="#DE8925"/>
<path d="M184.3 133.706C184.74 131.926 187.901 134.083 188.47 135.826C188.605 136.24 188.658 136.677 188.625 137.112C188.592 137.547 188.474 137.971 188.278 138.36C188.083 138.749 187.812 139.095 187.483 139.38C187.154 139.664 186.773 139.88 186.36 140.016C184.627 140.588 179.869 139.991 181.143 138.679C181.491 138.32 183.726 136.028 184.3 133.706Z" fill="#DE8925"/>
<path d="M152.878 150.353L156.759 163.072C157.166 165.275 158.327 167.265 160.041 168.698C161.755 170.13 163.914 170.915 166.143 170.915H193.603C195.867 170.922 198.059 170.116 199.785 168.644C201.511 167.172 202.658 165.129 203.02 162.883L203.029 162.841L206.467 150.179C206.675 148.898 206.602 147.587 206.256 146.336C205.909 145.086 205.296 143.926 204.459 142.938C203.622 141.949 202.582 141.155 201.41 140.61C200.237 140.066 198.961 139.783 197.67 139.783H161.645C160.339 139.783 159.049 140.072 157.866 140.629C156.683 141.185 155.636 141.997 154.8 143.005C153.963 144.014 153.357 145.194 153.025 146.464C152.693 147.734 152.643 149.062 152.878 150.353Z" fill="#CCCCCC"/>
<path d="M177.244 127.04L201.053 120.972L204.754 133.284C204.754 133.284 179.139 135.191 178.181 135.2C177.466 136.218 176.459 136.994 175.295 137.425C174.13 137.856 172.863 137.921 171.661 137.613C170.459 137.304 169.379 136.636 168.563 135.697C167.747 134.758 167.234 133.592 167.091 132.353C166.949 131.114 167.184 129.861 167.766 128.76C168.347 127.658 169.248 126.76 170.348 126.184C171.449 125.608 172.697 125.382 173.928 125.535C175.16 125.688 176.316 126.212 177.244 127.04Z" fill="#FFB6B6"/>
<path d="M193.133 71.2036C210.11 80.3214 212.364 100.647 222.779 118.51C223.69 126.771 222.523 134.03 214.255 134.176L210.369 135.086L207.542 134.332L206.048 135.955L202.884 134.44L199.23 135.143L191.654 135.318L196.434 122.012L203.249 118.12L195.193 98.5335L193.133 71.2036Z" fill="#3F3D56"/>
<path d="M141.253 37.8862C144.022 34.2653 142.061 29.0855 141.971 24.4963C141.805 15.9329 149.33 8.39614 157.503 7.28151C165.676 6.16691 173.824 10.4701 179.209 16.8518C184.488 23.1077 188.449 26.3867 191.306 34.1903C192.265 36.8071 192.237 44.2559 191.905 47.0569C191.572 49.8579 189.464 52.6785 186.76 52.7006C186.897 53.2446 186.884 53.816 186.72 54.3527C186.557 54.8893 186.25 55.3706 185.833 55.7443C185.417 56.1179 184.906 56.3695 184.357 56.4717C183.808 56.5739 183.242 56.5228 182.719 56.3239C178.013 54.2618 168.394 54.8533 168.394 54.8533C159.862 53.442 151.331 52.0306 142.8 50.6192C140.614 50.2576 138.349 49.8663 136.677 48.2313C136.211 47.7948 135.844 47.2621 135.602 46.6698C135.36 46.0775 135.249 45.4396 135.275 44.7999C135.497 41.482 139.343 40.3827 141.253 37.8862Z" fill="#2F2E41"/>
<path d="M169.386 53.9001C178.711 53.9001 186.271 46.3023 186.271 36.9298C186.271 27.5573 178.711 19.9595 169.386 19.9595C160.061 19.9595 152.502 27.5573 152.502 36.9298C152.502 46.3023 160.061 53.9001 169.386 53.9001Z" fill="#FFB6B6"/>
<path d="M179.582 33.7664L157.492 28.3906C156.54 28.1638 155.714 27.5726 155.19 26.7428C154.665 25.913 154.484 24.9103 154.684 23.948C155.145 21.8451 156.015 19.8543 157.243 18.0896C158.471 16.3249 160.033 14.821 161.84 13.6639C163.647 12.5067 165.663 11.7192 167.773 11.3463C169.883 10.9734 172.046 11.0224 174.137 11.4907L180.679 12.9632C182.784 13.4369 184.775 14.3226 186.539 15.5698C188.303 16.8169 189.805 18.4011 190.96 20.2318C192.115 22.0626 192.9 24.104 193.27 26.2396C193.64 28.3751 193.588 30.5631 193.116 32.6784L192.979 32.7353C188.857 34.4503 184.309 34.8411 179.957 33.8542C179.832 33.8262 179.707 33.7968 179.582 33.7664Z" fill="#2F2E41"/>
<path d="M157.737 50.3564L153.626 41.9196C153.15 41.1542 152.929 40.256 152.995 39.3558C153.16 38.4746 154.188 37.7231 154.954 38.1832C155.665 38.6101 162.566 28.4722 163.374 28.6564C164.21 28.8472 164.734 27.7867 164.932 26.9476C165.683 23.7677 162.341 26.6114 162.173 23.3477C162.004 20.0839 158.092 21.977 155.534 19.9603C152.975 17.9437 148.944 17.6908 146.584 19.9385C144.834 21.6051 144.314 24.1655 143.963 26.5628C143.148 32.1258 142.757 37.7433 142.792 43.3662C142.801 44.7475 142.923 46.3162 143.995 47.1804C144.599 47.5935 145.289 47.8616 146.013 47.964L154.805 49.8974" fill="#2F2E41"/>
<path d="M152.721 16.7278C157.316 16.7278 161.042 12.9835 161.042 8.36474C161.042 3.74597 157.316 0.00170898 152.721 0.00170898C148.126 0.00170898 144.4 3.74597 144.4 8.36474C144.4 12.9835 148.126 16.7278 152.721 16.7278Z" fill="#2F2E41"/>
<path d="M287.751 120.257V194.703C287.752 195.652 288.127 196.562 288.794 197.232C289.462 197.903 290.367 198.28 291.311 198.281H401.074C402.017 198.28 402.923 197.903 403.59 197.232C404.257 196.562 404.633 195.652 404.633 194.703V120.257C404.631 119.309 404.255 118.401 403.588 117.731C402.921 117.061 402.017 116.684 401.074 116.683H291.311C290.368 116.684 289.464 117.061 288.796 117.731C288.129 118.401 287.753 119.309 287.751 120.257Z" fill="#3F3D56"/>
<path d="M290.326 121.183V193.785C290.327 194.292 290.528 194.778 290.884 195.136C291.241 195.494 291.724 195.696 292.229 195.697H400.16C400.664 195.696 401.148 195.494 401.504 195.136C401.861 194.778 402.062 194.292 402.063 193.785V121.183C402.063 120.676 401.862 120.189 401.506 119.83C401.149 119.471 400.665 119.268 400.16 119.267H292.229C291.724 119.268 291.24 119.471 290.883 119.83C290.527 120.189 290.326 120.676 290.326 121.183Z" fill="url(#paint0_linear_747_2)"/>
<path d="M285.455 209.222C285.656 209.475 285.912 209.68 286.203 209.82C286.493 209.96 286.812 210.031 287.135 210.03H404.665C404.986 210.029 405.303 209.957 405.594 209.818C405.884 209.679 406.139 209.476 406.342 209.225C406.544 208.974 406.688 208.681 406.764 208.367C406.84 208.053 406.845 207.726 406.779 207.41L404.954 198.7C404.879 198.345 404.716 198.014 404.481 197.739C404.245 197.463 403.945 197.251 403.608 197.121C403.363 197.025 403.103 196.975 402.84 196.976H288.952C288.689 196.975 288.429 197.025 288.184 197.121C287.847 197.25 287.547 197.463 287.311 197.739C287.076 198.014 286.913 198.345 286.838 198.7L285.013 207.41C284.948 207.726 284.954 208.053 285.031 208.366C285.107 208.68 285.252 208.972 285.455 209.222Z" fill="#2F2E41"/>
<path d="M398.808 200.727H401.584C401.817 200.727 402.006 200.537 402.006 200.303V198.968C402.006 198.734 401.817 198.544 401.584 198.544H398.808C398.575 198.544 398.386 198.734 398.386 198.968V200.303C398.386 200.537 398.575 200.727 398.808 200.727Z" fill="#3F3D56"/>
<path d="M391.569 200.727H394.345C394.578 200.727 394.767 200.537 394.767 200.303V198.968C394.767 198.734 394.578 198.544 394.345 198.544H391.569C391.336 198.544 391.147 198.734 391.147 198.968V200.303C391.147 200.537 391.336 200.727 391.569 200.727Z" fill="#3F3D56"/>
<path d="M384.328 200.727H387.104C387.337 200.727 387.526 200.537 387.526 200.303V198.968C387.526 198.734 387.337 198.544 387.104 198.544H384.328C384.095 198.544 383.907 198.734 383.907 198.968V200.303C383.907 200.537 384.095 200.727 384.328 200.727Z" fill="#3F3D56"/>
<path d="M377.089 200.727H379.865C380.098 200.727 380.287 200.537 380.287 200.303V198.968C380.287 198.734 380.098 198.544 379.865 198.544H377.089C376.856 198.544 376.667 198.734 376.667 198.968V200.303C376.667 200.537 376.856 200.727 377.089 200.727Z" fill="#3F3D56"/>
<path d="M369.849 200.727H372.625C372.858 200.727 373.047 200.537 373.047 200.303V198.968C373.047 198.734 372.858 198.544 372.625 198.544H369.849C369.616 198.544 369.427 198.734 369.427 198.968V200.303C369.427 200.537 369.616 200.727 369.849 200.727Z" fill="#3F3D56"/>
<path d="M362.61 200.727H365.386C365.619 200.727 365.808 200.537 365.808 200.303V198.968C365.808 198.734 365.619 198.544 365.386 198.544H362.61C362.377 198.544 362.188 198.734 362.188 198.968V200.303C362.188 200.537 362.377 200.727 362.61 200.727Z" fill="#3F3D56"/>
<path d="M355.369 200.727H358.145C358.378 200.727 358.567 200.537 358.567 200.303V198.968C358.567 198.734 358.378 198.544 358.145 198.544H355.369C355.136 198.544 354.948 198.734 354.948 198.968V200.303C354.948 200.537 355.136 200.727 355.369 200.727Z" fill="#3F3D56"/>
<path d="M348.13 200.727H350.906C351.139 200.727 351.328 200.537 351.328 200.303V198.968C351.328 198.734 351.139 198.544 350.906 198.544H348.13C347.897 198.544 347.708 198.734 347.708 198.968V200.303C347.708 200.537 347.897 200.727 348.13 200.727Z" fill="#3F3D56"/>
<path d="M340.89 200.727H343.666C343.899 200.727 344.088 200.537 344.088 200.303V198.968C344.088 198.734 343.899 198.544 343.666 198.544H340.89C340.657 198.544 340.468 198.734 340.468 198.968V200.303C340.468 200.537 340.657 200.727 340.89 200.727Z" fill="#3F3D56"/>
<path d="M333.651 200.727H336.427C336.66 200.727 336.849 200.537 336.849 200.303V198.968C336.849 198.734 336.66 198.544 336.427 198.544H333.651C333.418 198.544 333.229 198.734 333.229 198.968V200.303C333.229 200.537 333.418 200.727 333.651 200.727Z" fill="#3F3D56"/>
<path d="M326.41 200.727H329.186C329.419 200.727 329.608 200.537 329.608 200.303V198.968C329.608 198.734 329.419 198.544 329.186 198.544H326.41C326.177 198.544 325.988 198.734 325.988 198.968V200.303C325.988 200.537 326.177 200.727 326.41 200.727Z" fill="#3F3D56"/>
<path d="M319.171 200.727H321.947C322.18 200.727 322.369 200.537 322.369 200.303V198.968C322.369 198.734 322.18 198.544 321.947 198.544H319.171C318.938 198.544 318.749 198.734 318.749 198.968V200.303C318.749 200.537 318.938 200.727 319.171 200.727Z" fill="#3F3D56"/>
<path d="M311.931 200.727H314.707C314.94 200.727 315.129 200.537 315.129 200.303V198.968C315.129 198.734 314.94 198.544 314.707 198.544H311.931C311.698 198.544 311.509 198.734 311.509 198.968V200.303C311.509 200.537 311.698 200.727 311.931 200.727Z" fill="#3F3D56"/>
<path d="M304.692 200.727H307.468C307.701 200.727 307.89 200.537 307.89 200.303V198.968C307.89 198.734 307.701 198.544 307.468 198.544H304.692C304.459 198.544 304.27 198.734 304.27 198.968V200.303C304.27 200.537 304.459 200.727 304.692 200.727Z" fill="#3F3D56"/>
<path d="M297.451 200.727H300.227C300.46 200.727 300.649 200.537 300.649 200.303V198.968C300.649 198.734 300.46 198.544 300.227 198.544H297.451C297.218 198.544 297.03 198.734 297.03 198.968V200.303C297.03 200.537 297.218 200.727 297.451 200.727Z" fill="#3F3D56"/>
<path d="M290.212 200.727H292.988C293.221 200.727 293.41 200.537 293.41 200.303V198.968C293.41 198.734 293.221 198.544 292.988 198.544H290.212C289.979 198.544 289.79 198.734 289.79 198.968V200.303C289.79 200.537 289.979 200.727 290.212 200.727Z" fill="#3F3D56"/>
<path d="M398.894 204.365H401.67C401.903 204.365 402.092 204.176 402.092 203.941V202.607C402.092 202.372 401.903 202.183 401.67 202.183H398.894C398.661 202.183 398.472 202.372 398.472 202.607V203.941C398.472 204.176 398.661 204.365 398.894 204.365Z" fill="#3F3D56"/>
<path d="M391.654 204.365H394.43C394.663 204.365 394.852 204.176 394.852 203.941V202.607C394.852 202.372 394.663 202.183 394.43 202.183H391.654C391.421 202.183 391.232 202.372 391.232 202.607V203.941C391.232 204.176 391.421 204.365 391.654 204.365Z" fill="#3F3D56"/>
<path d="M384.414 204.365H387.19C387.423 204.365 387.612 204.176 387.612 203.941V202.607C387.612 202.372 387.423 202.183 387.19 202.183H384.414C384.181 202.183 383.992 202.372 383.992 202.607V203.941C383.992 204.176 384.181 204.365 384.414 204.365Z" fill="#3F3D56"/>
<path d="M377.174 204.365H379.95C380.183 204.365 380.372 204.176 380.372 203.941V202.607C380.372 202.372 380.183 202.183 379.95 202.183H377.174C376.941 202.183 376.752 202.372 376.752 202.607V203.941C376.752 204.176 376.941 204.365 377.174 204.365Z" fill="#3F3D56"/>
<path d="M369.935 204.365H372.711C372.944 204.365 373.133 204.176 373.133 203.941V202.607C373.133 202.372 372.944 202.183 372.711 202.183H369.935C369.702 202.183 369.513 202.372 369.513 202.607V203.941C369.513 204.176 369.702 204.365 369.935 204.365Z" fill="#3F3D56"/>
<path d="M362.695 204.365H365.471C365.704 204.365 365.893 204.176 365.893 203.941V202.607C365.893 202.372 365.704 202.183 365.471 202.183H362.695C362.462 202.183 362.273 202.372 362.273 202.607V203.941C362.273 204.176 362.462 204.365 362.695 204.365Z" fill="#3F3D56"/>
<path d="M355.455 204.365H358.231C358.464 204.365 358.653 204.176 358.653 203.941V202.607C358.653 202.372 358.464 202.183 358.231 202.183H355.455C355.222 202.183 355.033 202.372 355.033 202.607V203.941C355.033 204.176 355.222 204.365 355.455 204.365Z" fill="#3F3D56"/>
<path d="M348.215 204.365H350.991C351.224 204.365 351.413 204.176 351.413 203.941V202.607C351.413 202.372 351.224 202.183 350.991 202.183H348.215C347.982 202.183 347.793 202.372 347.793 202.607V203.941C347.793 204.176 347.982 204.365 348.215 204.365Z" fill="#3F3D56"/>
<path d="M340.976 204.365H343.752C343.985 204.365 344.174 204.176 344.174 203.941V202.607C344.174 202.372 343.985 202.183 343.752 202.183H340.976C340.743 202.183 340.554 202.372 340.554 202.607V203.941C340.554 204.176 340.743 204.365 340.976 204.365Z" fill="#3F3D56"/>
<path d="M333.736 204.365H336.512C336.745 204.365 336.934 204.176 336.934 203.941V202.607C336.934 202.372 336.745 202.183 336.512 202.183H333.736C333.503 202.183 333.314 202.372 333.314 202.607V203.941C333.314 204.176 333.503 204.365 333.736 204.365Z" fill="#3F3D56"/>
<path d="M326.496 204.365H329.272C329.505 204.365 329.694 204.176 329.694 203.941V202.607C329.694 202.372 329.505 202.183 329.272 202.183H326.496C326.263 202.183 326.074 202.372 326.074 202.607V203.941C326.074 204.176 326.263 204.365 326.496 204.365Z" fill="#3F3D56"/>
<path d="M319.256 204.365H322.032C322.265 204.365 322.454 204.176 322.454 203.941V202.607C322.454 202.372 322.265 202.183 322.032 202.183H319.256C319.023 202.183 318.834 202.372 318.834 202.607V203.941C318.834 204.176 319.023 204.365 319.256 204.365Z" fill="#3F3D56"/>
<path d="M312.017 204.365H314.793C315.026 204.365 315.215 204.176 315.215 203.941V202.607C315.215 202.372 315.026 202.183 314.793 202.183H312.017C311.784 202.183 311.595 202.372 311.595 202.607V203.941C311.595 204.176 311.784 204.365 312.017 204.365Z" fill="#3F3D56"/>
<path d="M304.777 204.365H307.553C307.786 204.365 307.975 204.176 307.975 203.941V202.607C307.975 202.372 307.786 202.183 307.553 202.183H304.777C304.544 202.183 304.355 202.372 304.355 202.607V203.941C304.355 204.176 304.544 204.365 304.777 204.365Z" fill="#3F3D56"/>
<path d="M297.537 204.365H300.313C300.546 204.365 300.735 204.176 300.735 203.941V202.607C300.735 202.372 300.546 202.183 300.313 202.183H297.537C297.304 202.183 297.115 202.372 297.115 202.607V203.941C297.115 204.176 297.304 204.365 297.537 204.365Z" fill="#3F3D56"/>
<path d="M290.297 204.365H293.073C293.306 204.365 293.495 204.176 293.495 203.941V202.607C293.495 202.372 293.306 202.183 293.073 202.183H290.297C290.064 202.183 289.875 202.372 289.875 202.607V203.941C289.875 204.176 290.064 204.365 290.297 204.365Z" fill="#3F3D56"/>
<path d="M338.804 208.731H366.919C367.152 208.731 367.341 208.542 367.341 208.307V206.973C367.341 206.738 367.152 206.548 366.919 206.548H338.804C338.571 206.548 338.382 206.738 338.382 206.973V208.307C338.382 208.542 338.571 208.731 338.804 208.731Z" fill="#3F3D56"/>
<path d="M346.421 184.515C360.741 184.515 372.349 172.848 372.349 158.456C372.349 144.064 360.741 132.396 346.421 132.396C332.102 132.396 320.494 144.064 320.494 158.456C320.494 172.848 332.102 184.515 346.421 184.515Z" fill="white"/>
<path d="M340.6 168.792C340.262 168.799 339.927 168.721 339.627 168.564C339.306 168.4 339.036 168.152 338.845 167.846C338.654 167.54 338.55 167.187 338.543 166.826L338.116 150.19C338.107 149.829 338.194 149.473 338.369 149.157C338.543 148.842 338.799 148.58 339.109 148.398C339.419 148.216 339.772 148.121 340.131 148.124C340.49 148.126 340.842 148.225 341.15 148.41L357.064 156.321C357.354 156.495 357.595 156.74 357.765 157.033C357.935 157.326 358.029 157.657 358.037 157.996C358.046 158.336 357.969 158.671 357.815 158.973C357.66 159.274 357.432 159.531 357.152 159.72L341.665 168.446C341.35 168.661 340.981 168.781 340.6 168.792Z" fill="url(#paint1_linear_747_2)"/>
<path d="M442.946 272.604L434.684 268.901L444.981 234.329L457.175 239.795L442.946 272.604Z" fill="#A0616A"/>
<path d="M445.403 266.938L436.464 262.922L435.062 262.291L432.996 267.807L417.651 271.635C416.892 271.824 416.213 272.251 415.713 272.855C415.213 273.459 414.919 274.208 414.873 274.992C414.826 275.776 415.031 276.555 415.456 277.214C415.882 277.873 416.506 278.378 417.237 278.655L432.483 284.437L437.156 279.978L436.136 285.821L441.878 288L447.576 267.916L445.403 266.938Z" fill="#2F2E41"/>
<path d="M458.11 149.301C459.145 150.019 460.324 150.499 461.563 150.709C462.802 150.919 464.073 150.853 465.284 150.517C466.495 150.18 467.618 149.58 468.574 148.76C469.53 147.94 470.296 146.919 470.816 145.769L501.236 148.629L493.768 134.547L466.026 133.99C464.046 133.239 461.861 133.243 459.885 134.003C457.908 134.763 456.277 136.225 455.302 138.112C454.326 139.999 454.073 142.181 454.591 144.243C455.108 146.305 456.361 148.105 458.11 149.301Z" fill="#A0616A"/>
<path d="M488.955 148.338L531.05 153.081L531.195 152.894C531.473 152.538 559.017 117.101 563.645 108.665C566.492 103.597 567.529 97.7021 566.583 91.9598L566.552 91.8194L566.442 91.7263C564.198 89.8362 561.38 88.771 558.453 88.7065C555.526 88.642 552.664 89.582 550.34 91.3715C539.164 100.071 530.152 111.263 524.017 124.063L520.535 131.348L488.955 134.479V148.338Z" fill="url(#paint2_linear_747_2)"/>
<path d="M583.341 170.383L584.557 173.141C584.937 175.679 586.41 173.154 586.281 175.307C592.544 180.492 575.377 215.152 562.477 213.741C556.496 215.629 549.447 216.4 542.078 216.452C541.362 216.458 540.644 216.457 539.922 216.449C539.463 216.444 538.05 214.729 537.589 214.719C536.203 214.688 535.761 216.34 534.365 216.266C533.261 216.207 531.229 217.153 531.052 216.054C530.669 213.688 529.956 214.225 529.114 215.899C528.53 217.06 526.538 215.662 525.259 215.523C517.872 214.725 510.722 213.509 504.542 212.26C502.241 211.801 500.078 211.333 498.087 210.878C494.317 210.025 491.163 209.228 488.879 208.622C486.306 207.946 484.841 207.509 484.841 207.509L466.49 222.514L452.27 253.697C451.176 253.797 439.343 250.666 439.343 250.666C438.081 249.51 437.193 248.001 436.794 246.332C436.394 244.664 436.501 242.914 437.102 241.307C437.826 239.129 442.953 223.022 448.318 208.959C449.908 204.784 451.554 200.549 453.248 196.335C454.635 192.874 456.048 189.427 457.479 186.027C459.965 180.133 471.979 176.954 486.126 175.286C486.845 175.204 487.569 175.122 488.297 175.044C495.506 174.281 503.155 173.887 510.308 173.705C513.889 173.614 517.344 173.58 520.559 173.575C521.597 173.575 522.607 173.578 523.588 173.584H523.593C526.243 173.597 528.681 173.636 530.827 173.679C531.245 173.688 531.65 173.701 532.047 173.71H532.051C532.318 173.714 532.581 173.723 532.84 173.727C537.532 173.848 540.411 173.996 540.411 173.996L540.175 165.779L541.755 163.419L541.971 161.73V161.726L541.996 161.514L542.173 161.509L545.276 161.449L571.354 160.938L582.461 160.465L583.341 170.383Z" fill="#2F2E41"/>
<path d="M543.687 226.795L540.806 235.413L505.586 228.4L509.838 215.679L543.687 226.795Z" fill="#A0616A"/>
<path d="M537.841 224.875L534.715 234.201L534.223 235.664L539.882 237.206L545.134 252.195C545.393 252.937 545.881 253.575 546.526 254.018C547.172 254.46 547.942 254.684 548.723 254.655C549.504 254.627 550.256 254.348 550.868 253.86C551.48 253.372 551.921 252.699 552.126 251.941L556.402 236.137L551.541 231.886L557.426 232.351L559.037 226.398L538.604 222.608L537.841 224.875Z" fill="#2F2E41"/>
<path d="M520.795 217.454C520.396 218.585 521.575 217.029 521.149 218.151C519.508 222.499 516.455 229.909 515.856 231.105C515.623 231.059 471.333 224.866 465.36 223.12L474.569 199.652L475.603 197.021L490.858 202.487L496.083 206.978L507.492 208.448L520.795 217.454Z" fill="#2F2E41"/>
<path d="M549.465 66.7657C561.037 66.7657 570.417 57.3371 570.417 45.7062C570.417 34.0754 561.037 24.6467 549.465 24.6467C537.893 24.6467 528.512 34.0754 528.512 45.7062C528.512 57.3371 537.893 66.7657 549.465 66.7657Z" fill="#A0616A"/>
<path d="M470.018 157.764C471.558 158.735 468.545 161.072 466.727 161.072C465.854 161.072 465.017 160.724 464.4 160.103C463.782 159.483 463.436 158.641 463.436 157.764C463.436 155.937 465.475 151.595 466.315 153.215C466.545 153.658 468.009 156.496 470.018 157.764Z" fill="#DE8925"/>
<path d="M475.367 157.764C476.906 158.735 473.893 161.072 472.075 161.072C471.203 161.072 470.365 160.724 469.748 160.103C469.131 159.483 468.784 158.641 468.784 157.764C468.784 155.937 470.823 151.595 471.664 153.215C471.894 153.658 473.358 156.496 475.367 157.764Z" fill="#DE8925"/>
<path d="M472.81 157.021C471.069 156.497 473.353 153.438 475.105 152.952C475.947 152.718 476.846 152.83 477.606 153.262C478.365 153.695 478.922 154.413 479.155 155.259C479.639 157.02 478.824 161.75 477.584 160.414C477.246 160.049 475.082 157.705 472.81 157.021Z" fill="#DE8925"/>
<path d="M493.468 157.764C495.008 158.735 491.995 161.072 490.177 161.072C489.304 161.072 488.467 160.724 487.85 160.103C487.232 159.483 486.886 158.641 486.886 157.764C486.886 155.937 488.925 151.595 489.766 153.215C489.995 153.658 491.459 156.496 493.468 157.764Z" fill="#DE8925"/>
<path d="M498.817 157.764C500.357 158.735 497.344 161.072 495.526 161.072C494.653 161.072 493.816 160.724 493.198 160.103C492.581 159.483 492.234 158.641 492.234 157.764C492.234 155.937 494.274 151.595 495.114 153.215C495.344 153.658 496.808 156.496 498.817 157.764Z" fill="#DE8925"/>
<path d="M496.261 157.021C494.52 156.497 496.805 153.438 498.557 152.952C499.398 152.718 500.297 152.83 501.057 153.262C501.816 153.695 502.373 154.413 502.606 155.259C503.09 157.02 502.275 161.75 501.036 160.414C500.697 160.049 498.533 157.705 496.261 157.021Z" fill="#DE8925"/>
<path d="M458.41 157.021C456.669 156.497 458.954 153.438 460.706 152.952C461.547 152.718 462.447 152.83 463.206 153.262C463.965 153.695 464.523 154.413 464.755 155.259C465.239 157.02 464.425 161.75 463.185 160.414C462.847 160.049 460.683 157.705 458.41 157.021Z" fill="#DE8925"/>
<path d="M481.816 160.557C481.08 162.227 478.348 159.565 478.088 157.757C478.026 157.327 478.049 156.889 478.155 156.468C478.262 156.047 478.45 155.651 478.708 155.303C478.967 154.955 479.292 154.661 479.663 154.439C480.035 154.217 480.446 154.071 480.874 154.009C482.673 153.747 487.24 155.154 485.765 156.222C485.362 156.514 482.777 158.377 481.816 160.557Z" fill="#DE8925"/>
<path d="M488.126 155.017C488.565 153.244 491.713 155.393 492.28 157.129C492.415 157.542 492.467 157.977 492.434 158.41C492.402 158.843 492.285 159.266 492.089 159.654C491.894 160.041 491.625 160.386 491.297 160.669C490.969 160.953 490.589 161.168 490.179 161.303C488.451 161.873 483.712 161.279 484.981 159.971C485.327 159.614 487.554 157.331 488.126 155.017Z" fill="#DE8925"/>
<path d="M485.658 152.536C486.096 150.763 489.244 152.912 489.811 154.648C489.946 155.061 489.998 155.496 489.966 155.929C489.933 156.362 489.816 156.785 489.621 157.173C489.426 157.56 489.156 157.905 488.829 158.189C488.501 158.472 488.121 158.687 487.71 158.822C485.983 159.392 481.243 158.798 482.512 157.49C482.859 157.133 485.086 154.85 485.658 152.536Z" fill="#DE8925"/>
<path d="M470.347 144.724C469.611 146.395 466.878 143.732 466.618 141.924C466.556 141.494 466.579 141.056 466.685 140.635C466.792 140.214 466.98 139.818 467.239 139.47C467.497 139.122 467.822 138.829 468.193 138.607C468.565 138.385 468.976 138.238 469.404 138.176C471.203 137.914 475.77 139.321 474.295 140.39C473.893 140.681 471.307 142.544 470.347 144.724Z" fill="#DE8925"/>
<path d="M454.355 169.121L458.221 181.791C458.626 183.986 459.783 185.968 461.491 187.395C463.198 188.823 465.349 189.604 467.569 189.604H494.925C497.181 189.611 499.364 188.809 501.084 187.342C502.803 185.876 503.946 183.841 504.307 181.603L504.316 181.561L507.741 168.947C507.947 167.671 507.875 166.365 507.53 165.119C507.184 163.874 506.574 162.718 505.74 161.733C504.907 160.748 503.87 159.957 502.702 159.415C501.534 158.872 500.263 158.591 498.977 158.591H463.089C461.788 158.591 460.502 158.879 459.324 159.433C458.145 159.988 457.103 160.796 456.269 161.801C455.436 162.805 454.832 163.982 454.502 165.246C454.171 166.511 454.121 167.834 454.355 169.121Z" fill="#E6E6E6"/>
<path d="M543.909 73.0123C543.909 73.0123 559.021 71.0477 563.626 72.8988C565.264 73.5574 566.902 79.6054 569.974 81.4068C570.03 81.4395 570.086 81.4717 570.141 81.5035C573.007 83.1404 575.37 85.5381 576.97 88.4343C578.571 91.3305 579.348 94.6134 579.217 97.9239C578.472 112.82 579.611 127.75 582.605 142.358C582.822 143.44 583.052 144.536 583.293 145.646C583.576 146.95 583.877 148.275 584.194 149.62C584.785 152.129 585.439 154.718 586.154 157.385C586.526 158.774 584.331 162.351 584.739 163.788C585.013 164.753 585.295 165.729 585.586 166.717C586.459 169.682 589.992 170.587 591.021 173.775C591.033 174.794 590.785 175.8 590.299 176.695C589.814 177.59 589.108 178.345 588.25 178.887C587.391 179.43 586.408 179.742 585.395 179.793C584.382 179.844 583.373 179.634 582.465 179.181L529.06 174.995L534.142 167.078L530.695 162.314L533.28 160.582L534.573 155.818L530.486 139.77L524.631 126.281C522.611 121.628 522.34 116.397 523.867 111.559C525.395 106.72 528.617 102.603 532.935 99.9718L539.642 82.1158L543.909 73.0123Z" fill="url(#paint3_linear_747_2)"/>
<path d="M505.01 183.015C505.399 181.814 506.045 180.713 506.902 179.789C507.76 178.866 508.809 178.143 509.975 177.671C511.141 177.199 512.395 176.99 513.65 177.058C514.905 177.126 516.13 177.47 517.239 178.065L539.676 157.224L542.253 172.97L520.551 190.347C519.432 192.153 517.693 193.483 515.664 194.086C513.635 194.689 511.456 194.523 509.54 193.619C507.625 192.715 506.106 191.137 505.271 189.182C504.436 187.228 504.343 185.034 505.01 183.015Z" fill="#A0616A"/>
<path d="M540.571 175.371L573.354 151.053L573.464 151.055C573.426 150.604 569.673 105.793 567.364 96.4438C566.026 90.781 562.801 85.7485 558.225 82.1818L558.107 82.1003L557.964 82.1069C555.039 82.253 552.252 83.3963 550.061 85.3483C547.87 87.3003 546.406 89.9445 545.911 92.8449C543.594 106.861 544.55 121.226 548.704 134.807L551.076 142.53L536.298 155.97L540.571 175.371Z" fill="url(#paint4_linear_747_2)"/>
<path d="M616.709 76.6949C614.291 80.1389 610.762 82.6361 606.721 83.7631C605.103 84.2468 603.434 84.5318 601.748 84.6119C601.54 82.6962 601.042 80.8238 600.27 79.0596C600.349 80.9374 600.089 82.814 599.503 84.5989C596.972 84.4547 594.498 83.7883 592.234 82.6413C590.01 81.517 588.078 79.8873 586.59 77.8816C585.103 75.8758 584.1 73.5492 583.663 71.0863C582.776 65.3261 585.374 59.6699 586.313 53.9184C587.257 48.1668 585.486 40.8822 579.884 39.3707C575.618 38.2186 576.097 38.7167 572.55 41.3629C576.239 46.8452 562.614 66.9351 557.038 65.1832C553.885 64.1928 551.867 61.2854 551.216 61.2854C546.834 68.8732 555.086 81.6582 546.769 84.3131L547.454 83.6244C552.474 77.4182 541.982 64.2824 547.002 58.0761C548.402 56.3394 549.893 54.2821 549.48 52.0864C549.087 49.9988 545.791 48.8945 544.826 50.6095C546.562 46.612 543.999 41.2763 539.754 40.2499C535.984 39.336 536.053 40.4621 532.269 40.9515C532.022 39.3081 531.56 37.7048 530.895 36.1831C530.964 37.8227 530.774 39.463 530.33 41.0424C528.994 41.0162 527.703 40.5473 526.659 39.7085C523.574 37.2095 524.198 31.9604 526.952 29.0976C529.71 26.2349 533.808 25.2041 537.716 24.5371C538.852 16.5851 560.681 15.7556 563.574 23.7012C564.807 17.7678 572.197 14.6885 577.941 16.5291C583.685 18.3698 587.67 23.7619 589.769 29.4441C591.867 35.122 592.454 41.233 593.746 47.1491C595.039 53.0652 597.224 59.0896 601.722 63.1217C606.221 67.1495 613.551 68.4834 618.29 64.7415C618.98 66.7187 619.196 68.8313 618.921 70.9081C618.646 72.9849 617.888 74.9673 616.709 76.6949Z" fill="#2F2E41"/>
<path d="M172.922 59.5555C172.184 61.2324 169.441 58.5596 169.18 56.7445C169.054 55.8729 169.278 54.9869 169.803 54.2814C170.327 53.5759 171.109 53.1087 171.976 52.9826C173.782 52.72 178.367 54.1323 176.886 55.2045C176.482 55.4972 173.887 57.3674 172.922 59.5555Z" fill="#DE8925"/>
<path d="M174.327 68.0154L176.946 93.5623L189.228 96.2697C189.228 96.2697 182.526 66.5465 182.156 65.6588C182.804 64.5955 183.116 63.3596 183.05 62.1143C182.984 60.8691 182.543 59.6734 181.787 58.6852C181.03 57.6971 179.992 56.9632 178.812 56.5805C177.631 56.1979 176.362 56.1846 175.174 56.5423C173.985 56.9001 172.933 57.612 172.156 58.584C171.379 59.556 170.913 60.7423 170.821 61.9858C170.73 63.2294 171.016 64.4717 171.642 65.5483C172.268 66.6249 173.204 67.4852 174.327 68.0154Z" fill="#FFB6B6"/>
<path d="M143.502 72.0242C138.127 73.6189 157.827 113.366 185.323 119.384C187.192 118.811 188.921 117.854 190.401 116.572C191.881 115.289 193.078 113.711 193.916 111.937C194.754 110.164 195.215 108.234 195.269 106.271C195.323 104.308 194.968 102.355 194.229 100.538L186.129 81.4972L174.524 87.6184L175.206 96.7152L166.1 86.5097L147.344 77.9256L143.502 72.0242Z" fill="#3F3D56"/>
<defs>
<linearGradient id="paint0_linear_747_2" x1="346.194" y1="119.267" x2="346.194" y2="195.697" gradientUnits="userSpaceOnUse">
<stop stop-color="#31D5EE"/>
<stop offset="1" stop-color="#820AD1"/>
</linearGradient>
<linearGradient id="paint1_linear_747_2" x1="348.077" y1="148.124" x2="348.077" y2="168.792" gradientUnits="userSpaceOnUse">
<stop stop-color="#31D5EE"/>
<stop offset="1" stop-color="#820AD1"/>
</linearGradient>
<linearGradient id="paint2_linear_747_2" x1="527.939" y1="88.7034" x2="527.939" y2="153.081" gradientUnits="userSpaceOnUse">
<stop stop-color="#31D5EE"/>
<stop offset="1" stop-color="#820AD1"/>
</linearGradient>
<linearGradient id="paint3_linear_747_2" x1="556.956" y1="72.1045" x2="556.956" y2="179.801" gradientUnits="userSpaceOnUse">
<stop stop-color="#31D5EE"/>
<stop offset="1" stop-color="#820AD1"/>
</linearGradient>
<linearGradient id="paint4_linear_747_2" x1="554.881" y1="82.1003" x2="554.881" y2="175.371" gradientUnits="userSpaceOnUse">
<stop stop-color="#31D5EE"/>
<stop offset="1" stop-color="#820AD1"/>
</linearGradient>
</defs>
</svg>
