<svg width="154" height="25" viewBox="0 0 154 25" fill="none" xmlns="http://www.w3.org/2000/svg">
<g filter="url(#filter0_d_344_1130)">
<path d="M102 19C103.857 17.5641 109.222 10.2821 108.706 10.2821C108.19 10.2821 103.032 6.69253 104.321 5.1539C105.611 3.61528 119.539 3.61545 122.377 5.1539C125.214 6.69236 117.476 10.2821 116.96 10.2821C116.444 10.2821 122.377 19 122.377 19" stroke="url(#paint0_linear_344_1130)" stroke-width="3" stroke-linecap="round"/>
<path d="M5.625 13.9336C5.625 13.569 5.7487 13.263 5.99609 13.0156C6.25651 12.7552 6.56901 12.625 6.93359 12.625H9.92188L9.41406 11.1797C9.20573 10.6458 8.9974 10.1445 8.78906 9.67578C8.59375 9.19401 8.36589 8.75781 8.10547 8.36719C7.87109 7.97656 7.60417 7.76823 7.30469 7.74219C6.99219 7.76823 6.71224 7.97656 6.46484 8.36719C6.21745 8.75781 5.98958 9.19401 5.78125 9.67578C5.58594 10.1445 5.38411 10.6458 5.17578 11.1797L3.32031 16.2578C3.1901 16.5312 3.02083 16.7591 2.8125 16.9414C2.61719 17.1107 2.31771 17.1953 1.91406 17.1953C1.53646 17.1953 1.22396 17.0651 0.976562 16.8047C0.742188 16.5443 0.638021 16.2318 0.664062 15.8672C0.677083 15.6979 0.716146 15.5417 0.78125 15.3984L2.92969 9.85156C3.52865 8.39323 4.1276 7.21484 4.72656 6.31641C5.3125 5.43099 6.17188 4.98177 7.30469 4.96875C8.42448 4.98177 9.27734 5.43099 9.86328 6.31641C10.4622 7.1888 11.0612 8.36719 11.6602 9.85156L13.8086 15.3984C13.8737 15.5417 13.9128 15.6979 13.9258 15.8672C13.9518 16.2318 13.8411 16.5443 13.5938 16.8047C13.3594 17.0651 13.0534 17.1953 12.6758 17.1953C12.2461 17.1953 11.9271 17.1107 11.7188 16.9414C11.5234 16.7591 11.3607 16.5312 11.2305 16.2578L10.8594 15.2422H6.93359C6.56901 15.2422 6.26302 15.112 6.01562 14.8516C5.75521 14.6042 5.625 14.2982 5.625 13.9336ZM17.0906 17.2734C16.5698 17.2734 16.1336 17.0911 15.782 16.7266C15.4435 16.362 15.2742 15.9062 15.2742 15.3594C15.2742 14.8125 15.4435 14.3568 15.782 13.9922C16.1336 13.6276 16.5698 13.4453 17.0906 13.4453C17.6115 13.4453 18.0477 13.6276 18.3992 13.9922C18.7508 14.3568 18.9266 14.8125 18.9266 15.3594C18.9266 15.9062 18.7508 16.362 18.3992 16.7266C18.0477 17.0911 17.6115 17.2734 17.0906 17.2734ZM20.3531 15.6523C20.3531 15.2878 20.4768 14.9818 20.7242 14.7344C20.9846 14.474 21.2971 14.3438 21.6617 14.3438H25.4117V8.05469H21.6617C21.2971 8.05469 20.9911 7.92448 20.7437 7.66406C20.4833 7.41667 20.3531 7.11068 20.3531 6.74609C20.3531 6.38151 20.4768 6.07552 20.7242 5.82812C20.9846 5.56771 21.2971 5.4375 21.6617 5.4375H31.7789C32.1435 5.4375 32.456 5.5612 32.7164 5.80859C32.9638 6.06901 33.0875 6.38151 33.0875 6.74609C33.0875 7.11068 32.9573 7.42318 32.6969 7.68359C32.4495 7.93099 32.1435 8.05469 31.7789 8.05469H28.0484V14.3438H31.7789C32.1435 14.3438 32.456 14.4674 32.7164 14.7148C32.9638 14.9753 33.0875 15.2878 33.0875 15.6523C33.0875 16.0169 32.9573 16.3294 32.6969 16.5898C32.4495 16.8372 32.1435 16.9609 31.7789 16.9609H21.6617C21.2971 16.9609 20.9911 16.8307 20.7437 16.5703C20.4833 16.3229 20.3531 16.0169 20.3531 15.6523ZM36.3109 17.2734C35.7901 17.2734 35.3539 17.0911 35.0023 16.7266C34.6638 16.362 34.4945 15.9062 34.4945 15.3594C34.4945 14.8125 34.6638 14.3568 35.0023 13.9922C35.3539 13.6276 35.7901 13.4453 36.3109 13.4453C36.8318 13.4453 37.268 13.6276 37.6195 13.9922C37.9711 14.3568 38.1469 14.8125 38.1469 15.3594C38.1469 15.9062 37.9711 16.362 37.6195 16.7266C37.268 17.0911 36.8318 17.2734 36.3109 17.2734ZM43.6164 5.4375H44.5148H51.1555C51.5201 5.45052 51.8195 5.58724 52.0539 5.84766C52.3013 6.10807 52.425 6.42057 52.425 6.78516C52.3599 7.56641 51.9367 7.98958 51.1555 8.05469H44.2805C43.7857 8.08073 43.3755 8.26953 43.05 8.62109C42.7245 8.97266 42.4836 9.3763 42.3273 9.83203C42.1841 10.2747 42.1125 10.7305 42.1125 11.1992C42.1125 11.668 42.1841 12.1302 42.3273 12.5859C42.4836 13.0286 42.7245 13.4258 43.05 13.7773C43.3755 14.1289 43.7857 14.3177 44.2805 14.3438H51.1555C51.5201 14.3568 51.8195 14.4935 52.0539 14.7539C52.3013 15.0143 52.425 15.3268 52.425 15.6914C52.412 16.043 52.2818 16.3424 52.0344 16.5898C51.8 16.8242 51.507 16.9479 51.1555 16.9609H43.9875H43.6164C42.7049 16.9089 41.9497 16.5638 41.3508 15.9258C40.7648 15.2747 40.3417 14.5391 40.0812 13.7188C39.8339 12.8984 39.7102 12.0586 39.7102 11.1992C39.7102 10.3398 39.8404 9.5 40.1008 8.67969C40.3612 7.85938 40.7844 7.13021 41.3703 6.49219C41.9562 5.84115 42.7049 5.48958 43.6164 5.4375ZM52.3859 11.1211C52.3859 11.4857 52.2557 11.7917 51.9953 12.0391C51.7479 12.2995 51.4419 12.4297 51.0773 12.4297H45.1789C44.8143 12.4297 44.5018 12.306 44.2414 12.0586C43.994 11.7982 43.8703 11.4857 43.8703 11.1211C43.8703 10.7565 43.994 10.444 44.2414 10.1836C44.5018 9.9362 44.8143 9.8125 45.1789 9.8125H51.0773C51.4419 9.8125 51.7479 9.94271 51.9953 10.2031C52.2557 10.4505 52.3859 10.7565 52.3859 11.1211ZM59.3398 15.75C58.3372 16.5052 57.3672 16.9089 56.4297 16.9609H54.3984C54.0469 16.9479 53.7474 16.8242 53.5 16.5898C53.2656 16.3424 53.1419 16.043 53.1289 15.6914C53.1289 15.3268 53.2461 15.0143 53.4805 14.7539C53.7279 14.4935 54.0339 14.3568 54.3984 14.3438H56.2344C56.7292 14.3177 57.2435 14.1289 57.7773 13.7773C58.3112 13.4258 58.7539 13.0221 59.1055 12.5664C59.1445 12.5273 59.1836 12.4818 59.2227 12.4297C58.8711 12 58.4414 11.6159 57.9336 11.2773C57.3997 10.9258 56.8854 10.737 56.3906 10.7109H54.5547C54.1901 10.6979 53.8841 10.5612 53.6367 10.3008C53.4023 10.0404 53.2852 9.72786 53.2852 9.36328C53.2982 9.01172 53.4219 8.71875 53.6562 8.48438C53.9036 8.23698 54.2031 8.10677 54.5547 8.09375H56.5859C57.5234 8.14583 58.4935 8.54948 59.4961 9.30469C59.9258 9.63021 60.3294 10.0013 60.707 10.418C61.0846 10.0013 61.4948 9.63021 61.9375 9.30469C62.9271 8.54948 63.8906 8.14583 64.8281 8.09375H66.8594C67.2109 8.10677 67.5039 8.23698 67.7383 8.48438C67.9857 8.71875 68.1159 9.01172 68.1289 9.36328C68.1289 9.72786 68.0052 10.0404 67.7578 10.3008C67.5234 10.5612 67.224 10.6979 66.8594 10.7109H65.0234C64.5286 10.737 64.0143 10.9258 63.4805 11.2773C62.9727 11.6159 62.543 12 62.1914 12.4297C62.2305 12.4818 62.2695 12.5273 62.3086 12.5664C62.6602 13.0221 63.1029 13.4258 63.6367 13.7773C64.1706 14.1289 64.6849 14.3177 65.1797 14.3438H67.0156C67.3802 14.3568 67.6797 14.4935 67.9141 14.7539C68.1615 15.0143 68.2852 15.3268 68.2852 15.6914C68.2721 16.043 68.1419 16.3424 67.8945 16.5898C67.6602 16.8242 67.3672 16.9479 67.0156 16.9609H64.9844C64.0469 16.9089 63.0833 16.5052 62.0938 15.75C61.5859 15.3594 61.1237 14.9362 60.707 14.4805C60.2904 14.9362 59.8346 15.3594 59.3398 15.75ZM72.1141 18.6602C72.0359 19.4414 71.6062 19.8646 70.825 19.9297C70.4604 19.9297 70.1414 19.806 69.868 19.5586C69.6075 19.3242 69.4773 19.0247 69.4773 18.6602V9.36328C69.4904 8.9987 69.6271 8.69922 69.8875 8.46484C70.1479 8.21745 70.4604 8.09375 70.825 8.09375H79.0281C80.174 8.13281 81.0398 8.40625 81.6258 8.91406C82.2117 9.40885 82.6349 9.97526 82.8953 10.6133C83.1557 11.2383 83.2859 11.8763 83.2859 12.5273C83.2859 13.2044 83.1557 13.862 82.8953 14.5C82.6479 15.125 82.2247 15.6914 81.6258 16.1992C81.0398 16.694 80.2911 16.9479 79.3797 16.9609H74.4578C74.0932 16.9609 73.7872 16.8307 73.5398 16.5703C73.2794 16.3229 73.1492 16.0169 73.1492 15.6523C73.1492 15.2878 73.2729 14.9818 73.5203 14.7344C73.7807 14.474 74.0932 14.3438 74.4578 14.3438H79.4578C79.7052 14.3438 79.92 14.2461 80.1023 14.0508C80.2846 13.8424 80.4148 13.6081 80.493 13.3477C80.5841 13.0742 80.6297 12.8073 80.6297 12.5469C80.6297 12.2734 80.5841 12.0065 80.493 11.7461C80.4148 11.4727 80.2846 11.2383 80.1023 11.043C79.92 10.8346 79.7052 10.724 79.4578 10.7109H72.6219C72.2833 10.724 72.1141 10.8932 72.1141 11.2188V18.6602ZM86.2164 5.125C86.568 5.13802 86.8674 5.26823 87.1148 5.51562C87.3622 5.75 87.4924 6.04297 87.5055 6.39453V15.9648C87.4273 16.7461 86.9977 17.1693 86.2164 17.2344C85.8518 17.2344 85.5328 17.1172 85.2594 16.8828C84.999 16.6354 84.8688 16.3294 84.8688 15.9648V6.39453C84.8818 6.02995 85.0185 5.73047 85.2789 5.49609C85.5393 5.2487 85.8518 5.125 86.2164 5.125ZM93.2289 16.9609C92.0831 16.9219 91.2172 16.6549 90.6312 16.1602C90.0453 15.6523 89.6221 15.0859 89.3617 14.4609C89.1013 13.8229 88.9711 13.1784 88.9711 12.5273C88.9711 11.8503 89.0948 11.1992 89.3422 10.5742C89.6026 9.9362 90.0258 9.36979 90.6117 8.875C91.2107 8.36719 91.9659 8.10677 92.8773 8.09375H99.2055C100.117 8.10677 100.866 8.36719 101.452 8.875C102.051 9.36979 102.474 9.9362 102.721 10.5742C102.982 11.1992 103.112 11.8503 103.112 12.5273C103.112 13.1784 102.982 13.8229 102.721 14.4609C102.461 15.0859 102.037 15.6523 101.452 16.1602C100.866 16.6549 99.9997 16.9219 98.8539 16.9609H93.2289ZM92.7992 10.7109C92.5518 10.7109 92.337 10.8151 92.1547 11.0234C91.9724 11.2188 91.8357 11.4531 91.7445 11.7266C91.6664 11.987 91.6273 12.2474 91.6273 12.5078C91.6273 12.7812 91.6664 13.0547 91.7445 13.3281C91.8357 13.5885 91.9724 13.8229 92.1547 14.0312C92.337 14.2266 92.5518 14.3307 92.7992 14.3438H99.2836C99.531 14.3307 99.7458 14.2266 99.9281 14.0312C100.11 13.8229 100.241 13.5885 100.319 13.3281C100.41 13.0547 100.455 12.7812 100.455 12.5078C100.455 12.2474 100.41 11.987 100.319 11.7266C100.241 11.4531 100.11 11.2188 99.9281 11.0234C99.7458 10.8151 99.531 10.7109 99.2836 10.7109H92.7992ZM126.962 16.9609C125.816 16.9219 124.95 16.6549 124.364 16.1602C123.778 15.6523 123.355 15.0859 123.095 14.4609C122.834 13.8229 122.704 13.1784 122.704 12.5273C122.704 11.8503 122.828 11.1992 123.075 10.5742C123.335 9.9362 123.759 9.36979 124.345 8.875C124.943 8.36719 125.699 8.10677 126.61 8.09375H134.032C134.397 8.09375 134.703 8.21745 134.95 8.46484C135.21 8.69922 135.341 8.98568 135.341 9.32422C135.341 9.67578 135.21 9.97526 134.95 10.2227C134.703 10.457 134.397 10.5742 134.032 10.5742H126.727C126.441 10.5742 126.187 10.6719 125.966 10.8672C125.757 11.0625 125.601 11.3164 125.497 11.6289C125.406 11.9414 125.36 12.2474 125.36 12.5469C125.36 12.8724 125.406 13.1914 125.497 13.5039C125.601 13.8164 125.757 14.0703 125.966 14.2656C126.187 14.4479 126.441 14.5456 126.727 14.5586H134.032C134.397 14.5586 134.703 14.6758 134.95 14.9102C135.21 15.1445 135.341 15.4245 135.341 15.75C135.341 16.0885 135.21 16.375 134.95 16.6094C134.703 16.8438 134.397 16.9609 134.032 16.9609H126.962ZM135.106 12.4883C135.106 12.7357 134.996 12.9505 134.774 13.1328C134.579 13.3021 134.332 13.3867 134.032 13.3867H127.645C127.346 13.3867 127.092 13.3021 126.884 13.1328C126.675 12.9505 126.571 12.7357 126.571 12.4883C126.571 12.2539 126.675 12.0456 126.884 11.8633C127.092 11.694 127.346 11.6094 127.645 11.6094H134.032C134.332 11.6094 134.585 11.7005 134.794 11.8828C135.002 12.0521 135.106 12.2539 135.106 12.4883ZM137.197 10.5547C137.444 9.92969 137.861 9.36979 138.447 8.875C139.046 8.36719 139.801 8.10677 140.712 8.09375H148.056C148.421 8.09375 148.727 8.22396 148.974 8.48438C149.235 8.73177 149.365 9.03776 149.365 9.40234C149.365 9.76693 149.235 10.0794 148.974 10.3398C148.727 10.5872 148.421 10.7109 148.056 10.7109H140.634C140.387 10.7109 140.172 10.8151 139.99 11.0234C139.808 11.2188 139.664 11.4531 139.56 11.7266C139.469 12 139.423 12.2604 139.423 12.5078V15.9258C139.345 16.707 138.916 17.1302 138.134 17.1953C137.77 17.1953 137.451 17.0781 137.177 16.8438C136.917 16.5964 136.787 16.2904 136.787 15.9258V12.5273H136.806C136.806 11.8503 136.936 11.1927 137.197 10.5547Z" fill="#FAFAFA"/>
</g>
<defs>
<filter id="filter0_d_344_1130" x="0.625" y="2.5" width="152.74" height="22.0001" filterUnits="userSpaceOnUse" color-interpolation-filters="sRGB">
<feFlood flood-opacity="0" result="BackgroundImageFix"/>
<feColorMatrix in="SourceAlpha" type="matrix" values="0 0 0 0 0 0 0 0 0 0 0 0 0 0 0 0 0 0 127 0" result="hardAlpha"/>
<feOffset dx="2" dy="2"/>
<feGaussianBlur stdDeviation="1"/>
<feComposite in2="hardAlpha" operator="out"/>
<feColorMatrix type="matrix" values="0 0 0 0 0 0 0 0 0 0 0 0 0 0 0 0 0 0 0.5 0"/>
<feBlend mode="normal" in2="BackgroundImageFix" result="effect1_dropShadow_344_1130"/>
<feBlend mode="normal" in="SourceGraphic" in2="effect1_dropShadow_344_1130" result="shape"/>
</filter>
<linearGradient id="paint0_linear_344_1130" x1="112.5" y1="4" x2="112.5" y2="19" gradientUnits="userSpaceOnUse">
<stop stop-color="#32D6EF"/>
<stop offset="1" stop-color="#820AD1"/>
</linearGradient>
</defs>
</svg>
