<svg width="378" height="58" viewBox="0 0 378 58" fill="none" xmlns="http://www.w3.org/2000/svg">
<g filter="url(#filter0_d_344_1159)">
<path d="M14.0625 35.334C14.0625 34.4225 14.3717 33.6576 14.9902 33.0391C15.6413 32.388 16.4225 32.0625 17.334 32.0625H24.8047L23.5352 28.4492C23.0143 27.1146 22.4935 25.8613 21.9727 24.6895C21.4844 23.485 20.9147 22.3945 20.2637 21.418C19.6777 20.4414 19.0104 19.9206 18.2617 19.8555C17.4805 19.9206 16.7806 20.4414 16.1621 21.418C15.5436 22.3945 14.974 23.485 14.4531 24.6895C13.9648 25.8613 13.4603 27.1146 12.9395 28.4492L8.30078 41.1445C7.97526 41.8281 7.55208 42.3978 7.03125 42.8535C6.54297 43.2767 5.79427 43.4883 4.78516 43.4883C3.84115 43.4883 3.0599 43.1628 2.44141 42.5117C1.85547 41.8607 1.59505 41.0794 1.66016 40.168C1.69271 39.7448 1.79036 39.3542 1.95312 38.9961L7.32422 25.1289C8.82161 21.4831 10.319 18.5371 11.8164 16.291C13.2812 14.0775 15.4297 12.9544 18.2617 12.9219C21.0612 12.9544 23.1934 14.0775 24.6582 16.291C26.1556 18.472 27.653 21.418 29.1504 25.1289L34.5215 38.9961C34.6842 39.3542 34.7819 39.7448 34.8145 40.168C34.8796 41.0794 34.6029 41.8607 33.9844 42.5117C33.3984 43.1628 32.6335 43.4883 31.6895 43.4883C30.6152 43.4883 29.8177 43.2767 29.2969 42.8535C28.8086 42.3978 28.4017 41.8281 28.0762 41.1445L27.1484 38.6055H17.334C16.4225 38.6055 15.6576 38.2799 15.0391 37.6289C14.388 37.0104 14.0625 36.2454 14.0625 35.334ZM42.7266 43.6836C41.4245 43.6836 40.334 43.2279 39.4551 42.3164C38.6087 41.4049 38.1855 40.2656 38.1855 38.8984C38.1855 37.5312 38.6087 36.3919 39.4551 35.4805C40.334 34.569 41.4245 34.1133 42.7266 34.1133C44.0286 34.1133 45.1191 34.569 45.998 35.4805C46.877 36.3919 47.3164 37.5312 47.3164 38.8984C47.3164 40.2656 46.877 41.4049 45.998 42.3164C45.1191 43.2279 44.0286 43.6836 42.7266 43.6836ZM50.8828 39.6309C50.8828 38.7194 51.1921 37.9544 51.8105 37.3359C52.4616 36.6849 53.2428 36.3594 54.1543 36.3594H63.5293V20.6367H54.1543C53.2428 20.6367 52.4779 20.3112 51.8594 19.6602C51.2083 19.0417 50.8828 18.2767 50.8828 17.3652C50.8828 16.4538 51.1921 15.6888 51.8105 15.0703C52.4616 14.4193 53.2428 14.0938 54.1543 14.0938H79.4473C80.3587 14.0938 81.14 14.403 81.791 15.0215C82.4095 15.6725 82.7188 16.4538 82.7188 17.3652C82.7188 18.2767 82.3932 19.0579 81.7422 19.709C81.1237 20.3275 80.3587 20.6367 79.4473 20.6367H70.1211V36.3594H79.4473C80.3587 36.3594 81.14 36.6686 81.791 37.2871C82.4095 37.9382 82.7188 38.7194 82.7188 39.6309C82.7188 40.5423 82.3932 41.3236 81.7422 41.9746C81.1237 42.5931 80.3587 42.9023 79.4473 42.9023H54.1543C53.2428 42.9023 52.4779 42.5768 51.8594 41.9258C51.2083 41.3073 50.8828 40.5423 50.8828 39.6309ZM90.7773 43.6836C89.4753 43.6836 88.3848 43.2279 87.5059 42.3164C86.6595 41.4049 86.2363 40.2656 86.2363 38.8984C86.2363 37.5312 86.6595 36.3919 87.5059 35.4805C88.3848 34.569 89.4753 34.1133 90.7773 34.1133C92.0794 34.1133 93.1699 34.569 94.0488 35.4805C94.9277 36.3919 95.3672 37.5312 95.3672 38.8984C95.3672 40.2656 94.9277 41.4049 94.0488 42.3164C93.1699 43.2279 92.0794 43.6836 90.7773 43.6836ZM109.041 14.0938H111.287H127.889C128.8 14.1263 129.549 14.4681 130.135 15.1191C130.753 15.7702 131.062 16.5514 131.062 17.4629C130.9 19.416 129.842 20.474 127.889 20.6367H110.701C109.464 20.7018 108.439 21.1738 107.625 22.0527C106.811 22.9316 106.209 23.9408 105.818 25.0801C105.46 26.1868 105.281 27.3262 105.281 28.498C105.281 29.6699 105.46 30.8255 105.818 31.9648C106.209 33.0716 106.811 34.0645 107.625 34.9434C108.439 35.8223 109.464 36.2943 110.701 36.3594H127.889C128.8 36.3919 129.549 36.7337 130.135 37.3848C130.753 38.0358 131.062 38.8171 131.062 39.7285C131.03 40.6074 130.704 41.3561 130.086 41.9746C129.5 42.5605 128.768 42.8698 127.889 42.9023H109.969H109.041C106.762 42.7721 104.874 41.9095 103.377 40.3145C101.912 38.6868 100.854 36.8477 100.203 34.7969C99.5846 32.7461 99.2754 30.6465 99.2754 28.498C99.2754 26.3496 99.6009 24.25 100.252 22.1992C100.903 20.1484 101.961 18.3255 103.426 16.7305C104.891 15.1029 106.762 14.224 109.041 14.0938ZM130.965 28.3027C130.965 29.2142 130.639 29.9792 129.988 30.5977C129.37 31.2487 128.605 31.5742 127.693 31.5742H112.947C112.036 31.5742 111.255 31.265 110.604 30.6465C109.985 29.9954 109.676 29.2142 109.676 28.3027C109.676 27.3913 109.985 26.61 110.604 25.959C111.255 25.3405 112.036 25.0312 112.947 25.0312H127.693C128.605 25.0312 129.37 25.3568 129.988 26.0078C130.639 26.6263 130.965 27.3913 130.965 28.3027ZM148.35 39.875C145.843 41.763 143.418 42.7721 141.074 42.9023H135.996C135.117 42.8698 134.368 42.5605 133.75 41.9746C133.164 41.3561 132.855 40.6074 132.822 39.7285C132.822 38.8171 133.115 38.0358 133.701 37.3848C134.32 36.7337 135.085 36.3919 135.996 36.3594H140.586C141.823 36.2943 143.109 35.8223 144.443 34.9434C145.778 34.0645 146.885 33.0553 147.764 31.916C147.861 31.8184 147.959 31.7044 148.057 31.5742C147.178 30.5 146.104 29.5397 144.834 28.6934C143.499 27.8145 142.214 27.3424 140.977 27.2773H136.387C135.475 27.2448 134.71 26.903 134.092 26.252C133.506 25.6009 133.213 24.8197 133.213 23.9082C133.245 23.0293 133.555 22.2969 134.141 21.7109C134.759 21.0924 135.508 20.7669 136.387 20.7344H141.465C143.809 20.8646 146.234 21.8737 148.74 23.7617C149.814 24.5755 150.824 25.5033 151.768 26.5449C152.712 25.5033 153.737 24.5755 154.844 23.7617C157.318 21.8737 159.727 20.8646 162.07 20.7344H167.148C168.027 20.7669 168.76 21.0924 169.346 21.7109C169.964 22.2969 170.29 23.0293 170.322 23.9082C170.322 24.8197 170.013 25.6009 169.395 26.252C168.809 26.903 168.06 27.2448 167.148 27.2773H162.559C161.322 27.3424 160.036 27.8145 158.701 28.6934C157.432 29.5397 156.357 30.5 155.479 31.5742C155.576 31.7044 155.674 31.8184 155.771 31.916C156.65 33.0553 157.757 34.0645 159.092 34.9434C160.426 35.8223 161.712 36.2943 162.949 36.3594H167.539C168.451 36.3919 169.199 36.7337 169.785 37.3848C170.404 38.0358 170.713 38.8171 170.713 39.7285C170.68 40.6074 170.355 41.3561 169.736 41.9746C169.15 42.5605 168.418 42.8698 167.539 42.9023H162.461C160.117 42.7721 157.708 41.763 155.234 39.875C153.965 38.8984 152.809 37.8405 151.768 36.7012C150.726 37.8405 149.587 38.8984 148.35 39.875ZM180.285 47.1504C180.09 49.1035 179.016 50.1615 177.062 50.3242C176.151 50.3242 175.354 50.015 174.67 49.3965C174.019 48.8105 173.693 48.0618 173.693 47.1504V23.9082C173.726 22.9967 174.068 22.248 174.719 21.6621C175.37 21.0436 176.151 20.7344 177.062 20.7344H197.57C200.435 20.832 202.6 21.5156 204.064 22.7852C205.529 24.0221 206.587 25.4382 207.238 27.0332C207.889 28.5957 208.215 30.1908 208.215 31.8184C208.215 33.5111 207.889 35.1549 207.238 36.75C206.62 38.3125 205.562 39.7285 204.064 40.998C202.6 42.235 200.728 42.8698 198.449 42.9023H186.145C185.233 42.9023 184.468 42.5768 183.85 41.9258C183.199 41.3073 182.873 40.5423 182.873 39.6309C182.873 38.7194 183.182 37.9544 183.801 37.3359C184.452 36.6849 185.233 36.3594 186.145 36.3594H198.645C199.263 36.3594 199.8 36.1152 200.256 35.627C200.712 35.1061 201.037 34.5202 201.232 33.8691C201.46 33.1855 201.574 32.5182 201.574 31.8672C201.574 31.1836 201.46 30.5163 201.232 29.8652C201.037 29.1816 200.712 28.5957 200.256 28.1074C199.8 27.5866 199.263 27.3099 198.645 27.2773H181.555C180.708 27.3099 180.285 27.7331 180.285 28.5469V47.1504ZM215.541 13.3125C216.42 13.3451 217.169 13.6706 217.787 14.2891C218.406 14.875 218.731 15.6074 218.764 16.4863V40.4121C218.568 42.3652 217.494 43.4232 215.541 43.5859C214.63 43.5859 213.832 43.293 213.148 42.707C212.497 42.0885 212.172 41.3236 212.172 40.4121V16.4863C212.204 15.5749 212.546 14.8262 213.197 14.2402C213.848 13.6217 214.63 13.3125 215.541 13.3125ZM233.072 42.9023C230.208 42.8047 228.043 42.1374 226.578 40.9004C225.113 39.6309 224.055 38.2148 223.404 36.6523C222.753 35.0573 222.428 33.446 222.428 31.8184C222.428 30.1257 222.737 28.498 223.355 26.9355C224.007 25.3405 225.064 23.9245 226.529 22.6875C228.027 21.418 229.915 20.7669 232.193 20.7344H248.014C250.292 20.7669 252.164 21.418 253.629 22.6875C255.126 23.9245 256.184 25.3405 256.803 26.9355C257.454 28.498 257.779 30.1257 257.779 31.8184C257.779 33.446 257.454 35.0573 256.803 36.6523C256.152 38.2148 255.094 39.6309 253.629 40.9004C252.164 42.1374 249.999 42.8047 247.135 42.9023H233.072ZM231.998 27.2773C231.38 27.2773 230.842 27.5378 230.387 28.0586C229.931 28.5469 229.589 29.1328 229.361 29.8164C229.166 30.4674 229.068 31.1185 229.068 31.7695C229.068 32.4531 229.166 33.1367 229.361 33.8203C229.589 34.4714 229.931 35.0573 230.387 35.5781C230.842 36.0664 231.38 36.3268 231.998 36.3594H248.209C248.827 36.3268 249.365 36.0664 249.82 35.5781C250.276 35.0573 250.602 34.4714 250.797 33.8203C251.025 33.1367 251.139 32.4531 251.139 31.7695C251.139 31.1185 251.025 30.4674 250.797 29.8164C250.602 29.1328 250.276 28.5469 249.82 28.0586C249.365 27.5378 248.827 27.2773 248.209 27.2773H231.998ZM317.404 42.9023C314.54 42.8047 312.375 42.1374 310.91 40.9004C309.445 39.6309 308.387 38.2148 307.736 36.6523C307.085 35.0573 306.76 33.446 306.76 31.8184C306.76 30.1257 307.069 28.498 307.688 26.9355C308.339 25.3405 309.396 23.9245 310.861 22.6875C312.359 21.418 314.247 20.7669 316.525 20.7344H335.08C335.992 20.7344 336.757 21.0436 337.375 21.6621C338.026 22.248 338.352 22.9642 338.352 23.8105C338.352 24.6895 338.026 25.4382 337.375 26.0566C336.757 26.6426 335.992 26.9355 335.08 26.9355H316.818C316.102 26.9355 315.467 27.1797 314.914 27.668C314.393 28.1562 314.003 28.791 313.742 29.5723C313.514 30.3535 313.4 31.1185 313.4 31.8672C313.4 32.681 313.514 33.4785 313.742 34.2598C314.003 35.041 314.393 35.6758 314.914 36.1641C315.467 36.6198 316.102 36.8639 316.818 36.8965H335.08C335.992 36.8965 336.757 37.1895 337.375 37.7754C338.026 38.3613 338.352 39.0612 338.352 39.875C338.352 40.7214 338.026 41.4375 337.375 42.0234C336.757 42.6094 335.992 42.9023 335.08 42.9023H317.404ZM337.766 31.7207C337.766 32.3392 337.489 32.8763 336.936 33.332C336.447 33.7552 335.829 33.9668 335.08 33.9668H319.113C318.365 33.9668 317.73 33.7552 317.209 33.332C316.688 32.8763 316.428 32.3392 316.428 31.7207C316.428 31.1348 316.688 30.6139 317.209 30.1582C317.73 29.735 318.365 29.5234 319.113 29.5234H335.08C335.829 29.5234 336.464 29.7513 336.984 30.207C337.505 30.6302 337.766 31.1348 337.766 31.7207ZM342.992 26.8867C343.611 25.3242 344.652 23.9245 346.117 22.6875C347.615 21.418 349.503 20.7669 351.781 20.7344H370.141C371.052 20.7344 371.817 21.0599 372.436 21.7109C373.087 22.3294 373.412 23.0944 373.412 24.0059C373.412 24.9173 373.087 25.6986 372.436 26.3496C371.817 26.9681 371.052 27.2773 370.141 27.2773H351.586C350.967 27.2773 350.43 27.5378 349.975 28.0586C349.519 28.5469 349.161 29.1328 348.9 29.8164C348.673 30.5 348.559 31.151 348.559 31.7695V40.3145C348.363 42.2676 347.289 43.3255 345.336 43.4883C344.424 43.4883 343.627 43.1953 342.943 42.6094C342.292 41.9909 341.967 41.2259 341.967 40.3145V31.8184H342.016C342.016 30.1257 342.341 28.4818 342.992 26.8867Z" fill="#FAFAFA"/>
<path d="M251 50C256.571 45.5966 272.666 23.2651 271.119 23.2651C269.571 23.2651 254.095 12.2571 257.964 7.53864C261.833 2.8202 303.618 2.82071 312.13 7.53864C320.642 12.2566 297.428 23.2651 295.88 23.2651C294.333 23.2651 312.13 50 312.13 50" stroke="url(#paint0_linear_344_1159)" stroke-width="7" stroke-linecap="round"/>
</g>
<defs>
<filter id="filter0_d_344_1159" x="1.5625" y="0.5" width="375.85" height="57.0004" filterUnits="userSpaceOnUse" color-interpolation-filters="sRGB">
<feFlood flood-opacity="0" result="BackgroundImageFix"/>
<feColorMatrix in="SourceAlpha" type="matrix" values="0 0 0 0 0 0 0 0 0 0 0 0 0 0 0 0 0 0 127 0" result="hardAlpha"/>
<feOffset dx="2" dy="2"/>
<feGaussianBlur stdDeviation="1"/>
<feComposite in2="hardAlpha" operator="out"/>
<feColorMatrix type="matrix" values="0 0 0 0 0 0 0 0 0 0 0 0 0 0 0 0 0 0 0.5 0"/>
<feBlend mode="normal" in2="BackgroundImageFix" result="effect1_dropShadow_344_1159"/>
<feBlend mode="normal" in="SourceGraphic" in2="effect1_dropShadow_344_1159" result="shape"/>
</filter>
<linearGradient id="paint0_linear_344_1159" x1="282.5" y1="4" x2="282.5" y2="50" gradientUnits="userSpaceOnUse">
<stop offset="0.125" stop-color="#31D5EE"/>
<stop offset="0.89" stop-color="#820AD1"/>
</linearGradient>
</defs>
</svg>
